<?xml version="1.0" encoding="UTF-8"?>
<svg width="16px" height="16px" viewBox="0 0 16 16" version="1.1" xmlns="http://www.w3.org/2000/svg" xmlns:xlink="http://www.w3.org/1999/xlink">
    <!-- Generator: Sketch 45.2 (43514) - http://www.bohemiancoding.com/sketch -->
    <title>Fill 123</title>
    <desc>Created with Sketch.</desc>
    <defs></defs>
    <g id="Page-1" stroke="none" stroke-width="1" fill="none" fill-rule="evenodd">
        <g id="Artboard" transform="translate(-740.000000, -1238.000000)" fill="#19263D">
            <g id="Group-6" transform="translate(375.000000, 457.000000)">
                <g id="Group-5" transform="translate(88.000000, 149.000000)">
                    <g id="Footer" transform="translate(75.000000, 629.000000)">
                        <g id="Social" transform="translate(202.000000, 3.000000)">
                            <path d="M7.99946667,0 C3.58186667,0 0,3.67253446 0,8.20305084 C0,11.8269171 2.29226667,14.9012156 5.47146667,15.9855866 C5.87146667,16.0610497 6.01706667,15.8078657 6.01706667,15.590226 C6.01706667,15.3955532 6.01066667,14.8798891 6.0064,14.1952534 C3.78133333,14.6912315 3.31146667,13.0955711 3.31146667,13.0955711 C2.94773333,12.1484553 2.42346667,11.8958181 2.42346667,11.8958181 C1.69706667,11.3872629 2.4784,11.3971059 2.4784,11.3971059 C3.28106667,11.4550703 3.704,12.2425106 3.704,12.2425106 C4.4176,13.4964001 5.576,13.1343963 6.032,12.9244121 C6.10453333,12.3939836 6.31146667,12.0325265 6.53973333,11.8274639 C4.7632,11.6207608 2.896,10.916986 2.896,7.77378647 C2.896,6.87807303 3.20746667,6.14586284 3.71946667,5.57278122 C3.6368,5.36498445 3.36266667,4.53106321 3.79786667,3.40185183 C3.79786667,3.40185183 4.46933333,3.18147789 5.99786667,4.24288191 C6.63573333,4.06078632 7.32,3.97001194 8.00053333,3.96673094 C8.68,3.97001194 9.36426667,4.06078632 10.0032,4.24288191 C11.5306667,3.18147789 12.2010667,3.40185183 12.2010667,3.40185183 C12.6373333,4.53106321 12.3626667,5.36498445 12.2805333,5.57278122 C12.7936,6.14586284 13.1029333,6.87807303 13.1029333,7.77378647 C13.1029333,10.9246417 11.2325333,11.6180267 9.45013333,11.8214488 C9.7376,12.0746327 9.9936,12.5749855 9.9936,13.3400057 C9.9936,14.4369539 9.98346667,15.3217307 9.98346667,15.590226 C9.98346667,15.8095062 10.128,16.0648775 10.5338667,15.9850398 C13.7098667,14.8979346 16,11.8258234 16,8.20305084 C16,3.67253446 12.4176,0 7.99946667,0" id="Fill-123"></path>
                        </g>
                    </g>
                </g>
            </g>
        </g>
    </g>
</svg>