<?xml version="1.0" encoding="UTF-8"?>
<svg width="16px" height="16px" viewBox="0 0 16 16" version="1.1" xmlns="http://www.w3.org/2000/svg" xmlns:xlink="http://www.w3.org/1999/xlink">
    <!-- Generator: Sketch 45.2 (43514) - http://www.bohemiancoding.com/sketch -->
    <title>Fill 3</title>
    <desc>Created with Sketch.</desc>
    <defs></defs>
    <g id="Page-1" stroke="none" stroke-width="1" fill="none" fill-rule="evenodd">
        <g id="Artboard" transform="translate(-802.000000, -1238.000000)" fill="#19263D">
            <g id="Group-6" transform="translate(375.000000, 457.000000)">
                <g id="Group-5" transform="translate(88.000000, 149.000000)">
                    <g id="Footer" transform="translate(75.000000, 629.000000)">
                        <g id="Social" transform="translate(202.000000, 3.000000)">
                            <path d="M76.8165699,0 L63.1803531,0 C62.5292511,0 62,0.516307692 62,1.15384615 L62,14.8455385 C62,15.4824615 62.5292511,16 63.1803531,16 L76.8165699,16 C77.4689027,16 78,15.4824615 78,14.8455385 L78,1.15384615 C78,0.516307692 77.4689027,0 76.8165699,0 L76.8165699,0 Z M64.4616331,6.15384615 L66.9232663,6.15384615 L66.9232663,13.5384615 L64.4616331,13.5384615 L64.4616331,6.15384615 Z M65.6930651,5.16923077 C64.8751875,5.16923077 64.2154698,4.50769231 64.2154698,3.69230769 C64.2154698,2.87692308 64.8751875,2.21538462 65.6930651,2.21538462 C66.5078657,2.21538462 67.1694296,2.87692308 67.1694296,3.69230769 C67.1694296,4.50769231 66.5078657,5.16923077 65.6930651,5.16923077 L65.6930651,5.16923077 Z M75.5389823,13.5384615 L73.0773491,13.5384615 L73.0773491,9.84615385 C73.0773491,8.84615385 72.8078003,7.896 71.8465326,7.896 C70.8846494,7.896 70.615716,8.86092308 70.615716,9.85723077 L70.615716,13.5384615 L68.1540828,13.5384615 L68.1540828,6.15384615 L70.615716,6.15384615 L70.615716,7.04184615 L70.7387976,7.04184615 C71.0551175,6.44184615 71.8465326,5.93169231 72.7874918,5.93169231 C75.0583484,5.93169231 75.5389823,7.42338462 75.5389823,9.23076923 L75.5389823,13.5384615 L75.5389823,13.5384615 Z" id="Fill-3"></path>
                        </g>
                    </g>
                </g>
            </g>
        </g>
    </g>
</svg>